<?xml version="1.0" encoding="UTF-8"?>
<svg id="Calque_1" data-name="Calque 1" xmlns="http://www.w3.org/2000/svg" xmlns:xlink="http://www.w3.org/1999/xlink" viewBox="0 0 709.84 152.38">
  <defs>
    <style>
      .cls-1 {
        fill: url(#linear-gradient-2);
      }

      .cls-2 {
        fill: #2e0d53;
      }

      .cls-3 {
        fill: #1c1517;
      }

      .cls-4 {
        fill: url(#linear-gradient);
      }

      .cls-5 {
        fill: #666;
      }
    </style>
    <linearGradient id="linear-gradient" x1="282.68" y1="370.75" x2="329.09" y2="370.75" gradientTransform="translate(0 402.42) scale(1 -1)" gradientUnits="userSpaceOnUse">
      <stop offset="0" stop-color="#4a017d"/>
      <stop offset="1" stop-color="#e0013f"/>
    </linearGradient>
    <linearGradient id="linear-gradient-2" x1="14.32" y1="385.67" x2="83.04" y2="385.67" gradientTransform="translate(0 402.42) scale(1 -1)" gradientUnits="userSpaceOnUse">
      <stop offset="0" stop-color="#4a017d"/>
      <stop offset="1" stop-color="#e0013f"/>
    </linearGradient>
  </defs>
  <g>
    <path class="cls-3" d="m98.81,11c0-5.84,4.94-11,11.22-11s11,5.16,11,11-4.94,11.22-11,11.22-11.22-5.16-11.22-11.22Zm.22,17.39h21.66v58.01h-21.66V28.39Z"/>
    <path class="cls-3" d="m194.97,28.39v51.84c0,14.92-13.69,25.47-32.99,25.47-10.77,0-20.87-3.25-27.04-7.74l7.07-14.92c3.37,2.81,10.1,4.71,16.49,4.71,8.64,0,14.7-3.7,14.7-8.64v-4.6c-4.6,4.82-11.22,7.63-17.95,7.63-14.03,0-25.13-11.44-25.13-27.6s11.11-27.49,25.13-27.49c6.96,0,14.36,3.25,17.95,7.74v-6.4h21.77Zm-21.77,26.15c0-5.61-4.37-9.54-10.43-9.54s-10.44,3.93-10.44,9.54,4.38,9.65,10.44,9.65,10.43-4.04,10.43-9.65Z"/>
    <path class="cls-3" d="m206.64,11c0-5.84,4.94-11,11.22-11s11,5.16,11,11-4.94,11.22-11,11.22-11.22-5.16-11.22-11.22Zm.22,17.39h21.66v58.01h-21.66V28.39Z"/>
    <path class="cls-3" d="m238.65,74.51c0-6.73,5.72-12.68,13.24-12.68,6.96,0,12.68,5.95,12.68,12.68,0,7.29-5.72,13.24-12.68,13.24-7.52,0-13.24-5.95-13.24-13.24Z"/>
    <path class="cls-3" d="m381.19,25.7v17.95c-11.44,0-18.18,6.28-18.18,16.83v24.57h-21.66V27.04h21.66v10.32c3.82-7.17,10.32-11.66,18.18-11.66Z"/>
    <path class="cls-3" d="m328.81,41.75c-2.48.28-6.06-.52-11.28-3.4-11.43-6.3-26.16-7.89-35.13-8.22-1.81.74-3.59,1.54-5.33,2.42l6.62,13.13c4.83-2.47,8.53-3.93,14.03-3.93,6.73,0,11.9,3.37,11.9,9.09v.34c-4.15-1.68-8.42-2.58-12.23-2.58-14.03,0-25.02,7.97-25.02,19.3s9.87,18.51,22.33,18.51c5.5,0,11-1.91,14.92-5.5v4.15h20.76v-34.22c-.02-3.34-.58-6.36-1.57-9.09Zm-19.21,26.14c-.45,3.37-4.49,5.72-9.65,5.72-4.15,0-7.07-2.58-7.07-6.28,0-3.93,3.14-6.73,7.52-6.73,3.36,0,7.18.79,9.2,1.8v5.49Z"/>
    <path class="cls-4" d="m303.83,23.62c-7.65,0-14.6,1.74-21.15,4.43,8.97.33,23.71,1.91,35.13,8.22,5.22,2.88,8.8,3.68,11.28,3.4-3.69-10.23-13.66-16.05-25.26-16.05Z"/>
    <path class="cls-3" d="m83.04,27.8c-6.81,2.25-18.06,3.25-33.69-4.18-14.85-7.06-26.99-6.51-35.04-4.5v67.29h28.72c26.93,0,46.01-16.05,46.01-38.6,0-7.53-2.16-14.3-6-20.01Zm-36.41,38.86h-10.55V29.07h10.55c11.67,0,19.97,7.74,19.97,18.74,0,10.99-8.3,18.85-19.97,18.85Z"/>
    <path class="cls-1" d="m43.04,6.83H14.32v9.8c8.05-2,19.51-3.44,34.36,3.62,15.63,7.43,27.55,7.32,34.36,5.06-7.65-11.39-22.06-18.48-40-18.48Z"/>
  </g>
  <g>
    <path class="cls-5" d="m422.22,47.48c0-4.02,1.71-5.72,5.72-5.72h4.62c5.56,0,9.41,1.05,11.66,3.08,2.26,2.04,3.36,5.72,3.36,11.06v7.48c0,5.17-1.16,8.8-3.41,10.95-2.26,2.15-6.11,3.19-11.61,3.19h-4.62c-4.02,0-5.72-1.71-5.72-5.72v-24.32Zm10.35,27.18c4.68,0,7.81-.83,9.46-2.42s2.48-4.57,2.48-8.86v-7.48c0-4.24-.83-7.21-2.48-8.8-1.65-1.65-4.79-2.48-9.46-2.48h-4.35c-2.04,0-2.97.94-2.97,2.97v24.09c0,2.04.94,2.97,2.97,2.97h4.35Z"/>
    <path class="cls-5" d="m458.53,41.98c0,1.1-.88,2.04-1.98,2.04-1.16,0-2.09-.94-2.09-2.04-.16-2.64,4.35-2.64,4.07,0Zm-3.46,9.9c0-1.04.28-1.32,1.32-1.32h.28c1.04,0,1.32.28,1.32,1.32v24.31c0,1.05-.28,1.32-1.32,1.32h-.28c-1.04,0-1.32-.27-1.32-1.32v-24.31Z"/>
    <path class="cls-5" d="m486.97,60.13c0,6.22-3.69,9.35-11,9.35-3.25,0-5.39.17-6.44.44-.99.28-1.49.94-1.49,1.87,0,.88.5,1.48,1.54,1.76,1.04.27,3.14.38,6.38.38,4.35,0,7.32.55,9.02,1.6,1.71,1.05,2.58,2.92,2.58,5.61,0,6.11-3.08,8.36-11.61,8.36s-11.66-2.48-11.66-7.76c0-2.81,1.1-4.84,3.25-6.16-1.6-.66-2.42-1.82-2.42-3.52,0-2.2,1.65-3.69,4.51-3.96-3.19-1.16-4.79-3.8-4.79-7.98v-.77c0-5.94,4.07-9.3,11.11-9.3,2.25,0,4.24.38,5.94,1.21l3.19-2.92c.55-.5,1.1-.44,1.65.06l.22.22c.5.5.5,1.05,0,1.54l-2.75,2.64c1.82,1.43,2.75,3.63,2.75,6.55v.78h.02Zm-16.77,16.18c-1.98.99-2.97,2.75-2.97,5.23,0,4.18,2.2,5.34,8.75,5.34s8.69-1.16,8.69-5.56c0-1.98-.66-3.25-1.93-3.85-1.26-.6-3.52-.88-6.77-.88-2.14,0-4.07-.12-5.77-.28Zm13.86-16.95c0-4.46-2.7-6.66-8.09-6.66s-8.14,2.2-8.14,6.66v.77c0,4.46,1.93,6.71,8.14,6.71s8.09-2.26,8.09-6.71v-.77Z"/>
    <path class="cls-5" d="m497.26,41.98c0,1.1-.88,2.04-1.98,2.04-1.16,0-2.09-.94-2.09-2.04-.16-2.64,4.35-2.64,4.07,0Zm-3.46,9.9c0-1.04.28-1.32,1.32-1.32h.28c1.04,0,1.32.28,1.32,1.32v24.31c0,1.05-.28,1.32-1.32,1.32h-.28c-1.04,0-1.32-.27-1.32-1.32v-24.31Z"/>
    <path class="cls-5" d="m501.72,52.05c0-.71.17-.94.99-1.1l3.52-.39.55-6.16c.17-.83.38-.99,1.1-.99h.28c.83,0,.99.27.99.99v6.16h9.85c1.04,0,1.26.33,1.26,1.27v.22c0,.94-.22,1.27-1.26,1.27h-9.85v15.18c0,4.9,1.98,6.71,5.67,6.71,1.92,0,3.63-.22,5.17-.66.82-.28,1.26.11,1.26,1.04v.22c0,.94-.33,1.27-1.26,1.54-1.54.44-3.25.66-5.12.66-5.78,0-8.64-3.19-8.64-9.52v-15.18h-3.52c-.72,0-.99-.27-.99-.99v-.27h0Z"/>
    <path class="cls-5" d="m545.89,69.38c0,6.22-3.47,8.64-11.33,8.64-5.5,0-9.68-2.48-9.68-8.03s3.58-7.87,11.22-7.87h6.88v-3.8c0-4.13-2.7-5.61-7.76-5.61-2.58,0-4.79.27-6.6.77-.93.28-1.21.06-1.21-.99v-.38c0-.94.28-1.21,1.21-1.43,1.71-.39,3.85-.6,6.44-.6,7.21,0,10.84,2.75,10.84,8.25v11.05h-.01Zm-2.91-4.84h-6.77c-5.89,0-8.42,1.43-8.42,5.45,0,3.58,2.26,5.39,6.77,5.39,5.89,0,8.42-1.32,8.42-6.11v-4.73Z"/>
    <path class="cls-5" d="m552.5,40.33c0-1.04.28-1.32,1.32-1.32h.27c1.05,0,1.32.27,1.32,1.32v30.31c0,2.92.99,4.35,2.97,4.35h.66c1.04,0,1.27.17,1.27,1.1v.22c0,.94-.22,1.21-1.27,1.38-.22.06-.5.06-.88.06-3.36,0-5.67-1.98-5.67-6.77v-30.65h.01Z"/>
    <path class="cls-5" d="m607.84,76.14c.28,1.1.11,1.38-1.04,1.38h-.22c-1.16,0-1.43-.27-1.82-1.38l-3.03-10.67h-17.16l-3.03,10.67c-.39,1.1-.66,1.38-1.82,1.38h-.22c-1.15,0-1.32-.27-1.04-1.38l7.87-27.72c.83-2.81,1.65-4.73,2.53-5.67.94-.94,2.37-1.43,4.29-1.43s3.36.5,4.24,1.43c.94.94,1.76,2.86,2.58,5.67l7.87,27.72Zm-22.5-13.47h15.62l-4.24-15.07c-.83-2.81-1.65-3.58-3.58-3.58s-2.75.77-3.58,3.58l-4.22,15.07Z"/>
    <path class="cls-5" d="m615.6,76.2c0,1.05-.28,1.32-1.32,1.32h-.27c-1.05,0-1.32-.27-1.32-1.32v-16.83c0-6.22,2.86-9.3,8.64-9.3.71,0,1.43.05,2.2.17,1.05.16,1.21.38,1.21,1.32v.33c0,1.05-.33,1.27-1.27,1.1-.61-.11-1.32-.17-2.15-.17-4.24,0-5.72,2.2-5.72,6.66v16.72Z"/>
    <path class="cls-5" d="m631.93,76.2c0,1.05-.28,1.32-1.32,1.32h-.27c-1.05,0-1.32-.27-1.32-1.32v-16.17c0-6.66,3.36-9.96,10.01-9.96,4.57,0,7.43,1.65,8.53,5.01,1.21-3.36,4.07-5.01,8.58-5.01,7.21,0,10.01,3.58,10.01,9.96v16.17c0,1.05-.27,1.32-1.32,1.32h-.27c-1.05,0-1.32-.27-1.32-1.32v-16.17c0-4.9-1.76-7.21-7.1-7.21s-7.1,2.31-7.1,7.21v16.17c0,1.05-.28,1.32-1.32,1.32h-.27c-1.05,0-1.32-.27-1.32-1.32v-16.17c0-4.9-1.76-7.21-7.1-7.21s-7.1,2.37-7.1,7.21v16.17h0Z"/>
    <path class="cls-5" d="m679.8,71.8c.72,2.64,1.6,3.3,3.58,3.3s2.86-.71,3.52-3.3l5-19.91c.28-1.04.61-1.32,1.71-1.32h.22c1.1,0,1.32.28,1.04,1.32l-6.66,25.63c-1.81,7.04-5,11.28-10.73,11.33-.83,0-1.05-.17-1.27-1.1l-.11-.44c-.22-.94-.11-1.1.72-1.1,2.42-.06,4.18-.77,5.33-2.26,1.16-1.49,2.26-3.85,3.3-7.1-.83.5-1.82.77-2.97.77-3.3,0-4.51-1.76-5.67-5.89l-5.83-19.86c-.28-1.04-.11-1.32.99-1.32h.22c1.1,0,1.38.28,1.76,1.32l5.85,19.93Z"/>
  </g>
  <g>
    <path class="cls-2" d="m62.76,124.14c.28-.03.48.06.59.28.11.22.11.46,0,.71-.11.25-.31.4-.59.43-2.69.25-6.66.57-11.91.95-.25.03-.43.08-.52.14-.1.06-.21.24-.33.52-2.66,6.45-4.84,11.45-6.55,14.99-.16.25-.35.38-.57.38s-.41-.11-.57-.33c-.16-.22-.17-.46-.05-.71,2.28-4.71,4.37-9.49,6.26-14.33.16-.35.11-.51-.14-.47-7.34.51-12.37.9-15.09,1.19-.6.06-1.04.3-1.33.71-2.59,3.76-4.76,6.77-6.5,9.02-.09.16-.47.67-1.14,1.54-.66.87-1.14,1.49-1.42,1.85-.28.36-.78.96-1.49,1.8-.71.84-1.29,1.46-1.73,1.85-.44.4-1.03.89-1.76,1.49-.73.6-1.38,1.04-1.97,1.33-.59.29-1.23.52-1.95.71-.71.19-1.42.25-2.11.19-2.31-.19-4.47-.89-6.48-2.11-2.01-1.22-3.49-2.84-4.44-4.86-.47-1.08-.78-2.16-.93-3.25s-.02-2.18.38-3.27c.4-1.09,1.1-1.95,2.11-2.59.57-.35,1.23-.68,1.99-1,.76-.32,1.42-.57,1.97-.76.55-.19,1.34-.4,2.37-.62,1.03-.22,1.73-.37,2.11-.45.38-.08,1.18-.21,2.4-.4,1.22-.19,1.91-.3,2.06-.33.54-.09,1.14-.19,1.8-.28.66-.09,1.35-.19,2.06-.28.71-.1,1.44-.2,2.18-.31.74-.11,1.48-.21,2.21-.28.73-.08,1.42-.17,2.09-.26.66-.1,1.28-.17,1.85-.24.57-.06,1.06-.12,1.47-.17.41-.05.87-.1,1.38-.17.73-.09,1.28-.4,1.66-.9,1.42-2.06,3.8-5.63,7.12-10.72,3.32-5.09,5.96-8.97,7.92-11.63.09-.13.29-.41.59-.85.3-.44.59-.85.88-1.23.28-.38.63-.85,1.04-1.4.41-.55.82-1.05,1.23-1.49.41-.44.85-.9,1.3-1.38.46-.47.91-.87,1.35-1.19.44-.32.89-.58,1.35-.78.46-.21.91-.31,1.35-.31s.84.13,1.19.38c.41.25.71.61.9,1.07.19.46.27,1.07.24,1.83-.03.76-.06,1.27-.1,1.54-.03.27-.11.78-.24,1.54-.57,3.35-1.77,7.75-3.61,13.19-1.11,3.29-2.34,6.72-3.7,10.3-.06.16-.07.27-.02.33.05.06.2.08.45.05,6.52-.51,10.3-.82,11.34-.95Zm-32.6,4.65c.16-.25.21-.42.14-.5-.06-.08-.25-.1-.57-.07-5.47.6-9.89,1.19-13.24,1.76-.28.03-1.3.18-3.04.45-1.74.27-2.98.48-3.73.64-.74.16-1.73.44-2.97.83-1.23.4-2.26.85-3.08,1.35-1.68,1.11-2.47,2.47-2.37,4.08.1,1.61.67,3.18,1.73,4.7,1.06,1.52,2.29,2.66,3.68,3.42,3.8,2.09,7.12,1.98,9.96-.33,1.04-.85,2.11-1.84,3.2-2.97,1.09-1.12,1.98-2.07,2.66-2.85.68-.78,1.62-1.99,2.82-3.65,1.2-1.66,1.97-2.73,2.3-3.2s1.16-1.69,2.49-3.65Zm19.36-4.08c1.71-4.49,3.12-8.45,4.22-11.86.03-.09.17-.51.4-1.26.24-.74.38-1.18.43-1.3s.18-.53.4-1.21c.22-.68.36-1.13.4-1.35.05-.22.17-.64.36-1.26.19-.62.32-1.07.38-1.35.06-.28.16-.7.28-1.23.13-.54.22-1,.29-1.38.06-.38.13-.81.21-1.28.08-.47.13-.92.17-1.33.03-.38.05-.7.07-.95.02-.25.02-.57.02-.95s-.04-.67-.12-.88c-.08-.21-.2-.39-.36-.55-.16-.16-.37-.21-.64-.14-.27.06-.59.22-.97.47-.76.51-1.56,1.18-2.4,2.02-.84.84-1.46,1.53-1.85,2.06-.4.54-1.02,1.38-1.87,2.51-1.96,2.56-4.44,6.14-7.45,10.72-.63.92-1.84,2.75-3.63,5.48-1.79,2.74-3.17,4.85-4.15,6.33-.09.06-.11.15-.05.26.06.11.17.15.33.12,6.9-.54,11.8-.92,14.71-1.14.38-.03.65-.22.81-.57Z"/>
    <path class="cls-2" d="m77.66,98.28c.47,0,.81.17,1.02.52.21.35.31.71.31,1.09,0,.63-.3,1.72-.9,3.27-2.75,7.05-7.47,14.44-14.14,22.16-.16.19-.29.4-.38.62-1.08,2.59-2.02,5.09-2.85,7.5-.79,2.34-1.36,4.25-1.71,5.74-.03.03-.09.24-.19.62-.09.38-.17.68-.21.9-.05.22-.07.48-.07.78s.06.53.19.69c.16.25.16.48,0,.69-.16.21-.36.32-.59.33-.24.02-.45-.09-.64-.31-.09-.16-.17-.36-.24-.62-.06-.25-.09-.47-.09-.66s.02-.45.07-.78.08-.56.09-.69c.02-.13.07-.37.17-.74.1-.36.14-.56.14-.59.47-1.96,1.31-4.6,2.51-7.92,2.34-6.33,4.92-12.37,7.73-18.13.06-.13.17-.35.33-.66.54-1.11.98-2,1.33-2.68.35-.68.85-1.65,1.49-2.92.65-1.26,1.23-2.3,1.76-3.11s1.08-1.64,1.68-2.49c.6-.85,1.18-1.5,1.73-1.95.55-.44,1.04-.66,1.45-.66Zm-10.58,20.64c.32,0,1.46-1.6,3.44-4.79,1.98-3.19,3.77-6.38,5.39-9.56,1.61-3.18,2.15-4.77,1.61-4.77-.51,0-1.64,1.47-3.39,4.41-1.76,2.94-3.42,5.96-4.98,9.06-1.57,3.1-2.35,4.9-2.35,5.41,0,.16.1.24.28.24Z"/>
    <path class="cls-2" d="m87.91,98.28c.47,0,.81.17,1.02.52.21.35.31.71.31,1.09,0,.63-.3,1.72-.9,3.27-2.75,7.05-7.47,14.44-14.14,22.16-.16.19-.29.4-.38.62-1.08,2.59-2.02,5.09-2.85,7.5-.79,2.34-1.36,4.25-1.71,5.74-.03.03-.09.24-.19.62-.09.38-.17.68-.21.9-.05.22-.07.48-.07.78s.06.53.19.69c.16.25.16.48,0,.69-.16.21-.36.32-.59.33-.24.02-.45-.09-.64-.31-.09-.16-.17-.36-.24-.62-.06-.25-.09-.47-.09-.66s.02-.45.07-.78.08-.56.09-.69c.02-.13.07-.37.17-.74.1-.36.14-.56.14-.59.47-1.96,1.31-4.6,2.51-7.92,2.34-6.33,4.92-12.37,7.73-18.13.06-.13.17-.35.33-.66.54-1.11.98-2,1.33-2.68.35-.68.85-1.65,1.49-2.92.65-1.26,1.23-2.3,1.76-3.11s1.08-1.64,1.68-2.49c.6-.85,1.18-1.5,1.73-1.95.55-.44,1.04-.66,1.45-.66Zm-10.58,20.64c.32,0,1.46-1.6,3.44-4.79,1.98-3.19,3.77-6.38,5.39-9.56,1.61-3.18,2.15-4.77,1.61-4.77-.51,0-1.64,1.47-3.39,4.41-1.76,2.94-3.42,5.96-4.98,9.06-1.57,3.1-2.35,4.9-2.35,5.41,0,.16.1.24.28.24Z"/>
    <path class="cls-2" d="m125.3,108.96c.28,0,.48.12.59.36.11.24.11.47,0,.71-.11.24-.31.36-.59.36-4.14,0-9.79.05-16.94.14-.35,0-.6.14-.76.43-2.63,4.46-5.95,9-9.96,13.62-.16.22-.3.46-.43.71-1.04,2.56-1.98,5.05-2.8,7.45-.82,2.34-1.39,4.24-1.71,5.69-.03.06-.09.28-.19.66-.1.38-.17.68-.21.9-.05.22-.07.48-.07.78s.05.53.14.69c.16.22.17.44.02.66-.14.22-.33.34-.57.36-.24.02-.45-.09-.64-.31-.22-.32-.32-.75-.31-1.3.02-.55.05-.97.09-1.23.05-.27.15-.72.31-1.35.47-1.93.98-3.64,1.52-5.12,2.59-7.43,5.52-14.47,8.78-21.12.03-.06.11-.22.24-.47.13-.25.22-.46.28-.62.03-.09.02-.18-.02-.26-.05-.08-.12-.12-.21-.12-7.15.09-12.8.14-16.94.14-.28,0-.48-.12-.59-.36-.11-.24-.11-.47,0-.69.11-.22.31-.33.59-.33,4.27,0,10.23-.05,17.89-.14.13,0,.21-.05.24-.14,3.8-7.66,6.56-11.48,8.3-11.48.47,0,.81.17,1,.52.19.35.3.71.33,1.09,0,.63-.3,1.72-.9,3.27-.79,2.02-1.77,4.11-2.94,6.26-.03.09-.02.18.02.26.05.08.12.12.21.12,6.77-.06,12.18-.11,16.23-.14Zm-19.6,1.95c.06-.06.06-.14,0-.24-.06-.09-.14-.14-.24-.14-.32,0-.81.02-1.47.05-.1,0-.16.05-.19.14-2.21,4.21-3.32,6.63-3.32,7.26,0,.16.08.24.24.24.47,0,2.14-2.44,4.98-7.31Zm1.14-1.99c1.55-2.72,2.77-5.04,3.65-6.95.89-1.91,1.11-2.87.66-2.87-.38,0-1.17.94-2.37,2.82-1.2,1.88-2.53,4.17-3.99,6.86-.03.09-.02.18.02.26.05.08.12.12.21.12h1.47c.16,0,.27-.08.33-.24Z"/>
    <path class="cls-2" d="m128.91,124.62c.19-.19.42-.24.69-.14.27.09.43.25.47.47.05.22-.02.43-.21.62-.09.13-.52.51-1.28,1.14-.76.63-1.25,1.04-1.47,1.23-.22.19-.68.56-1.38,1.12-.7.55-1.22.94-1.57,1.16-.35.22-.85.55-1.5.97-.65.43-1.2.75-1.66.97-.46.22-.99.44-1.59.66-.6.22-1.17.4-1.71.52-.95.19-1.71.16-2.28-.09-.57-.25-.93-.67-1.09-1.26-.16-.58-.21-1.2-.17-1.85.05-.65.2-1.32.45-2.02.25-.79,1.03-2.59,2.32-5.41.06-.16.02-.24-.14-.24-.13,0-.25.05-.38.14-.38.22-.82.52-1.33.9-4.52,3.45-7.66,6.41-9.4,8.87v.05l-.05.05c-.16.38-.42.49-.78.33-.36-.16-.53-.43-.5-.81,0-.03.02-.06.05-.09v-.09h.05v-.05c4.4-9.58,8.11-17.43,11.15-23.54-.25-.03-.45-.15-.59-.36-.14-.21-.15-.43-.02-.69,1.04-1.93,2.29-3.64,3.75-5.12.28-.28.58-.3.9-.05.32.25.38.55.19.9-3.35,6.52-7.21,14.5-11.58,23.96-.1.19-.1.31,0,.36.09.05.22,0,.38-.12,1.08-1.01,2.5-2.23,4.27-3.65,3.83-3.1,5.8-3.84,5.93-2.23.03.35-.02.71-.14,1.09-.13.38-.35.85-.66,1.4-.32.55-.49.88-.52.97-.06.16-.21.46-.43.9-.22.44-.4.8-.55,1.07-.14.27-.32.66-.52,1.16-.21.51-.33.9-.38,1.19s-.11.66-.19,1.14c-.08.47-.04.82.12,1.04.19.6.61.92,1.26.95.65.03,1.46-.21,2.44-.74.98-.52,1.91-1.06,2.8-1.61.89-.55,1.9-1.27,3.04-2.16,1.14-.89,1.92-1.5,2.35-1.85.43-.35.91-.74,1.45-1.19Z"/>
    <path class="cls-2" d="m147.08,124.66c.22-.19.46-.24.71-.14.25.09.41.25.47.47.06.22,0,.44-.19.66-6.64,5.76-12.19,8.13-16.66,7.12-1.52-.35-2.59-1.08-3.2-2.21-.62-1.12-.75-2.36-.4-3.7.35-1.34,1.04-2.55,2.09-3.63.85-.89,1.82-1.57,2.89-2.06,1.08-.49,2.12-.59,3.13-.31.76.22,1.25.7,1.47,1.42.22.73.21,1.41-.05,2.04-.35,1.2-1.41,2.07-3.18,2.61-1.77.54-3.27.51-4.51-.09-.22-.1-.4.05-.52.43-.06.32-.1.63-.1.95-.03,1.04.28,1.85.93,2.42.65.57,1.46.89,2.44.95.98.06,1.95.02,2.89-.14.95-.16,1.8-.4,2.56-.71,2.75-1.11,5.82-3.13,9.21-6.07Zm-16.8.33c-.06.13-.09.26-.07.4.02.14.09.23.21.26.73.22,1.53.28,2.4.17.87-.11,1.65-.43,2.35-.95s1.03-1.12,1-1.78c-.09-1.23-1-1.44-2.7-.62-1.46.7-2.52,1.54-3.18,2.52Z"/>
    <path class="cls-2" d="m169.57,126.23c-.16.03-.28.11-.38.24-.1.13-.11.27-.05.43.06.22.16.45.29.69.13.24.28.5.47.78.19.28.35.51.47.66.13.16.32.39.57.69.25.3.4.48.43.55,1.3,1.65,2.85,3.32,4.65,5.03.13.09.36.32.71.66s.63.62.85.83c.22.21.55.5.97.88.43.38.79.7,1.09.95.3.25.67.54,1.11.85.44.32.83.58,1.16.78.33.21.72.41,1.16.62.44.21.84.35,1.19.43.35.08.71.13,1.09.14.38.02.73-.04,1.04-.17.29-.09.51-.05.66.14.16.19.21.41.17.66-.05.25-.2.43-.45.52-.38.16-.79.24-1.23.24s-.87-.04-1.28-.12c-.41-.08-.85-.22-1.33-.43-.47-.21-.9-.41-1.28-.62-.38-.21-.81-.48-1.31-.83-.49-.35-.9-.65-1.23-.9-.33-.25-.73-.59-1.19-1-.46-.41-.81-.72-1.04-.93-.24-.21-.55-.5-.93-.88-.22-.22-.38-.36-.47-.43-2.15-2.02-3.99-4.03-5.5-6.03-.82-1.04-1.46-1.95-1.9-2.7,0-.06-.08-.09-.24-.09s-.25.02-.28.05c-2.09,4.78-3.64,8.54-4.65,11.29-.63,1.68-1.06,2.97-1.28,3.89-.03.13-.08.35-.14.66-.06.32-.13.54-.19.66-.06.25-.06.43,0,.52-.06-.03-.17-.06-.33-.09.47.06.7.33.66.81-.03.44-.25.63-.66.57-.47-.06-.78-.35-.93-.85-.14-.51-.13-1.18.05-2.02.17-.84.4-1.72.66-2.63.27-.92.62-1.91,1.04-2.97.43-1.06.81-1.98,1.14-2.75.33-.78.67-1.53,1.02-2.25.35-.73.52-1.12.52-1.19.19-.41.72-1.6,1.59-3.56.87-1.96,2.04-4.59,3.51-7.9,1.47-3.31,2.68-6,3.63-8.09l3.56-8.07c.03-.1.06-.17.1-.24.13-.32.39-.41.78-.28.4.13.56.35.5.66,0,.06-.02.14-.05.24-4.81,10.79-7.77,17.41-8.87,19.88-.06.16-.05.3.05.43s.22.19.38.19c10.25-.76,18.14-3.54,23.68-8.35.89-.76,1.71-1.63,2.47-2.61.76-.98,1.44-2.07,2.04-3.27.6-1.2.96-2.4,1.07-3.61.11-1.2-.04-2.4-.45-3.61-1.58-4.14-6.34-6.44-14.28-6.88-5.44-.32-10.77.24-15.99,1.66-5.03,1.39-8.7,3.02-11.01,4.89.13.19.15.4.07.62-.08.22-.23.36-.45.43-.54.25-1.06.54-1.57.85-.35.22-.64.17-.88-.14-.24-.32-.23-.63.02-.95,1.23-1.49,2.76-2.7,4.58-3.65,1.82-.95,4.01-1.83,6.57-2.66,4.87-1.64,10-2.48,15.37-2.52,1.26-.03,2.55,0,3.84.12,1.3.11,2.72.3,4.27.57,1.55.27,2.97.68,4.27,1.23,1.3.55,2.5,1.22,3.61,1.99,1.11.78,1.96,1.77,2.56,2.99.6,1.22.87,2.59.81,4.1-.06,1.96-.47,3.8-1.23,5.53-.76,1.72-1.75,3.23-2.97,4.53-1.22,1.3-2.67,2.48-4.34,3.56-1.68,1.08-3.41,1.99-5.2,2.73-1.79.74-3.69,1.38-5.72,1.92-2.02.54-3.95.96-5.79,1.26-1.83.3-3.65.51-5.46.64Z"/>
    <path class="cls-2" d="m212.56,124.66c.22-.19.46-.24.71-.14.25.09.41.25.47.47.06.22,0,.44-.19.66-6.64,5.76-12.19,8.13-16.66,7.12-1.52-.35-2.59-1.08-3.2-2.21-.62-1.12-.75-2.36-.4-3.7.35-1.34,1.04-2.55,2.09-3.63.85-.89,1.82-1.57,2.89-2.06,1.08-.49,2.12-.59,3.13-.31.76.22,1.25.7,1.47,1.42.22.73.21,1.41-.05,2.04-.35,1.2-1.41,2.07-3.18,2.61-1.77.54-3.27.51-4.51-.09-.22-.1-.4.05-.52.43-.06.32-.1.63-.1.95-.03,1.04.28,1.85.93,2.42.65.57,1.46.89,2.44.95.98.06,1.95.02,2.89-.14.95-.16,1.8-.4,2.56-.71,2.75-1.11,5.82-3.13,9.21-6.07Zm-16.8.33c-.06.13-.09.26-.07.4.02.14.09.23.21.26.73.22,1.53.28,2.4.17.87-.11,1.65-.43,2.35-.95s1.03-1.12,1-1.78c-.09-1.23-1-1.44-2.7-.62-1.46.7-2.52,1.54-3.18,2.52Z"/>
    <path class="cls-2" d="m233.63,124.33c.19-.19.41-.24.66-.14.25.09.41.25.47.47.06.22,0,.44-.19.66-2.31,2.34-4.6,4.16-6.88,5.46-1.99,1.17-3.77,1.76-5.31,1.76-1.46,0-2.56-.59-3.3-1.78-.74-1.19-.96-2.49-.64-3.91.03-.13.02-.21-.02-.26-.05-.05-.1-.02-.17.07-.13.19-.24.35-.33.47-1.93,2.44-3.73,4.08-5.41,4.93-.89.47-1.68.51-2.4.1s-.97-1.14-.78-2.18c.16-.89.62-1.88,1.38-2.99.76-1.11,1.67-2.08,2.73-2.92,1.06-.84,2.17-1.44,3.35-1.8,1.17-.36,2.25-.26,3.23.31.09.03.19-.02.28-.14.6-.89,1.08-1.5,1.42-1.85.22-.19.46-.24.71-.17.25.08.41.24.47.47.06.24,0,.47-.19.69-.89.89-1.68,2.1-2.4,3.63-.71,1.53-.91,2.82-.59,3.87.66,2.21,2.26,2.8,4.79,1.76,2.91-1.17,5.95-3.34,9.11-6.5Zm-15.18-.28c.09-.16.11-.3.05-.43-.06-.13-.17-.19-.33-.19-1.3,0-2.74.74-4.34,2.21-1.6,1.47-2.57,2.76-2.92,3.87-.16.25-.23.62-.21,1.12.02.49.26.64.74.45.73-.28,1.6-.95,2.61-1.99,1.52-1.45,2.99-3.13,4.41-5.03Z"/>
    <path class="cls-2" d="m251.52,124.52c.25-.06.45-.02.59.14.14.16.2.36.17.59-.03.24-.17.4-.43.5-4.02,1.3-7.54,2.7-10.58,4.22-.32.16-.4.38-.24.66.25.54.33,1.17.24,1.9-.38,2.15-1.75,4.2-4.1,6.15-2.36,1.95-4.69,3.19-7,3.72-.66.13-1.3.1-1.92-.09-.62-.19-.99-.6-1.11-1.23-.28-1.3.92-3.16,3.61-5.6,2.06-1.87,4.46-3.57,7.21-5.12.1-.06.14-.17.14-.31s-.06-.24-.19-.31c-.38-.16-.62-.25-.71-.28-.06-.03-.33-.16-.81-.38-.47-.22-.8-.39-.97-.5-.17-.11-.43-.27-.76-.47-.33-.21-.59-.43-.78-.66-.19-.24-.35-.5-.47-.78-.28-.76-.25-1.49.12-2.21.36-.71.91-1.26,1.64-1.66.73-.4,1.5-.65,2.33-.76.82-.11,1.53.07,2.14.55.19.13.28.32.26.57-.02.25-.11.43-.28.52-.17.09-.37.08-.59-.05-.7-.51-1.51-.58-2.44-.21-.93.36-1.5.91-1.71,1.64-.21.73.09,1.47.88,2.23.38.29.98.61,1.8.97.82.36,1.33.59,1.52.69.09.06.17.11.24.14.32.19.63.21.95.05,3.26-1.68,7.02-3.21,11.29-4.6Zm-11.44,7.07c-.03-.16-.08-.3-.14-.43-.16-.25-.38-.3-.66-.14-2.94,1.61-5.49,3.4-7.64,5.36-2.28,2.06-3.35,3.48-3.23,4.27.03.25.22.41.57.47.35.06.69.05,1.02-.02.33-.08.66-.18.97-.31,2.72-1.01,5.09-2.69,7.12-5.03,1.55-1.77,2.21-3.16,1.99-4.18Z"/>
    <path class="cls-2" d="m267.6,124.71c.25-.16.49-.16.71,0,.22.16.33.36.33.59s-.11.44-.33.59c-1.99,1.2-4.27,2.01-6.83,2.42-1.11.19-1.9.28-2.37.28-.54.03-.92.21-1.14.52-.95,1.36-2.09,2.31-3.42,2.85-.79.28-1.55.41-2.28.38-.73-.03-1.35-.32-1.87-.88-.52-.55-.78-1.27-.78-2.16.03-1.01.34-2.13.93-3.35.58-1.22,1.42-2.29,2.49-3.23,1.08-.93,2.18-1.4,3.32-1.4.95,0,1.73.33,2.35,1,.62.66.89,1.58.83,2.75-.03.38-.11.82-.24,1.33-.06.28-.05.47.05.57.09.1.33.13.71.1,2.62-.13,5.14-.92,7.54-2.37Zm-11.25,4.18c.35-.38.35-.7,0-.95-.7-.54-1.12-1.24-1.28-2.11-.16-.87-.05-1.68.33-2.44.03-.06.02-.13-.05-.19-.06-.06-.14-.1-.24-.12-.09-.02-.22.02-.38.12-.89.47-1.65,1.16-2.3,2.04-.65.89-1.08,1.84-1.28,2.87-.21,1.03-.08,1.84.38,2.44.46.6,1.21.7,2.25.28.92-.41,1.77-1.06,2.56-1.95Zm1.57-2.71c.35-1.11.3-2.02-.14-2.75-.25-.41-.52-.41-.81,0-.38.54-.6,1.07-.66,1.59-.06.52.12,1.04.57,1.54.19.16.39.2.59.12.21-.08.36-.24.45-.5Z"/>
    <path class="cls-2" d="m288.05,124.9c.19-.16.42-.19.69-.1.27.1.43.25.5.47.06.22,0,.43-.19.62-1.46,1.23-2.49,2.1-3.11,2.61-.62.51-1.55,1.18-2.8,2.02-1.25.84-2.41,1.49-3.49,1.97-.89.38-1.8.57-2.75.57-1.99,0-2.99-1-2.99-2.99,0-.41.12-1.02.36-1.83s.42-1.35.54-1.64c.44-1.01.76-1.83.95-2.47.09-.28.05-.46-.12-.52-.17-.06-.36-.02-.55.14-1.11.76-2.42,1.85-3.94,3.27-1.77,1.68-3.43,3.32-4.98,4.93-.22.25-.5.28-.83.09-.33-.19-.43-.44-.31-.76,1.08-2.88,2.91-6.8,5.5-11.77.16-.22.36-.33.59-.33s.43.11.59.33c.16.22.17.46.05.71-1.68,3.16-2.89,5.58-3.65,7.26-.06.16-.06.26.02.31.08.05.17,0,.26-.12.76-.73,1.49-1.41,2.18-2.04,2.75-2.5,4.63-3.75,5.65-3.75.25,0,.45.04.59.12.14.08.25.21.31.38s.11.35.14.52c.03.17.03.38,0,.62-.03.24-.07.46-.12.66-.05.21-.11.44-.19.69-.08.25-.14.45-.19.59-.05.14-.15.4-.31.78-.13.35-.24.65-.33.9-.22.6-.39,1.13-.5,1.59-.11.46-.17.93-.19,1.4-.02.47.06.83.24,1.07s.44.42.81.55c.36.13.88.06,1.54-.19.54-.16,1.06-.35,1.57-.57.51-.22,1.04-.51,1.61-.85.57-.35,1.03-.63,1.38-.85.35-.22.85-.59,1.5-1.12.65-.52,1.07-.86,1.28-1.02.21-.16.68-.55,1.42-1.19s1.16-1,1.26-1.09Z"/>
    <path class="cls-2" d="m306.79,124.52c.25-.06.45-.02.59.14.14.16.2.36.17.59-.03.24-.17.4-.43.5-4.02,1.3-7.54,2.7-10.58,4.22-.32.16-.4.38-.24.66.25.54.33,1.17.24,1.9-.38,2.15-1.75,4.2-4.1,6.15-2.36,1.95-4.69,3.19-7,3.72-.66.13-1.3.1-1.92-.09-.62-.19-.99-.6-1.12-1.23-.28-1.3.92-3.16,3.61-5.6,2.06-1.87,4.46-3.57,7.21-5.12.09-.06.14-.17.14-.31s-.06-.24-.19-.31c-.38-.16-.62-.25-.71-.28-.06-.03-.33-.16-.81-.38-.47-.22-.8-.39-.97-.5-.17-.11-.43-.27-.76-.47-.33-.21-.59-.43-.78-.66-.19-.24-.35-.5-.47-.78-.28-.76-.25-1.49.12-2.21.36-.71.91-1.26,1.64-1.66.73-.4,1.5-.65,2.33-.76.82-.11,1.53.07,2.13.55.19.13.28.32.26.57-.02.25-.11.43-.29.52s-.37.08-.59-.05c-.7-.51-1.51-.58-2.44-.21-.93.36-1.5.91-1.71,1.64-.21.73.09,1.47.88,2.23.38.29.98.61,1.8.97.82.36,1.33.59,1.52.69.09.06.17.11.24.14.32.19.63.21.95.05,3.26-1.68,7.02-3.21,11.29-4.6Zm-11.44,7.07c-.03-.16-.08-.3-.14-.43-.16-.25-.38-.3-.66-.14-2.94,1.61-5.49,3.4-7.64,5.36-2.28,2.06-3.35,3.48-3.23,4.27.03.25.22.41.57.47.35.06.69.05,1.02-.02.33-.08.66-.18.97-.31,2.72-1.01,5.09-2.69,7.12-5.03,1.55-1.77,2.21-3.16,1.99-4.18Z"/>
    <path class="cls-2" d="m349.36,108.96c.29,0,.48.12.59.36.11.24.11.47,0,.71-.11.24-.31.36-.59.36-4.14,0-9.79.05-16.94.14-.35,0-.6.14-.76.43-2.63,4.46-5.95,9-9.96,13.62-.16.22-.3.46-.43.71-1.04,2.56-1.98,5.05-2.8,7.45-.82,2.34-1.39,4.24-1.71,5.69-.03.06-.1.28-.19.66-.09.38-.17.68-.21.9-.05.22-.07.48-.07.78s.05.53.14.69c.16.22.17.44.02.66-.14.22-.33.34-.57.36-.24.02-.45-.09-.64-.31-.22-.32-.32-.75-.31-1.3.02-.55.05-.97.09-1.23.05-.27.15-.72.31-1.35.47-1.93.98-3.64,1.52-5.12,2.59-7.43,5.52-14.47,8.78-21.12.03-.06.11-.22.24-.47.13-.25.22-.46.28-.62.03-.09.02-.18-.02-.26-.05-.08-.12-.12-.21-.12-7.15.09-12.79.14-16.94.14-.29,0-.48-.12-.59-.36-.11-.24-.11-.47,0-.69.11-.22.31-.33.59-.33,4.27,0,10.23-.05,17.89-.14.13,0,.21-.05.24-.14,3.8-7.66,6.56-11.48,8.3-11.48.47,0,.81.17,1,.52.19.35.3.71.33,1.09,0,.63-.3,1.72-.9,3.27-.79,2.02-1.77,4.11-2.94,6.26-.03.09-.02.18.02.26.05.08.12.12.21.12,6.77-.06,12.18-.11,16.23-.14Zm-19.6,1.95c.06-.06.06-.14,0-.24s-.14-.14-.24-.14c-.32,0-.81.02-1.47.05-.09,0-.16.05-.19.14-2.21,4.21-3.32,6.63-3.32,7.26,0,.16.08.24.24.24.47,0,2.14-2.44,4.98-7.31Zm1.14-1.99c1.55-2.72,2.77-5.04,3.65-6.95.88-1.91,1.11-2.87.66-2.87-.38,0-1.17.94-2.37,2.82-1.2,1.88-2.53,4.17-3.99,6.86-.03.09-.02.18.02.26.05.08.12.12.21.12h1.47c.16,0,.27-.08.33-.24Z"/>
    <path class="cls-2" d="m347.69,124.71c.25-.16.49-.16.71,0,.22.16.33.36.33.59s-.11.44-.33.59c-1.99,1.2-4.27,2.01-6.83,2.42-1.11.19-1.9.28-2.37.28-.54.03-.92.21-1.14.52-.95,1.36-2.09,2.31-3.42,2.85-.79.28-1.55.41-2.28.38-.73-.03-1.35-.32-1.87-.88-.52-.55-.78-1.27-.78-2.16.03-1.01.34-2.13.92-3.35.58-1.22,1.42-2.29,2.49-3.23,1.08-.93,2.18-1.4,3.32-1.4.95,0,1.73.33,2.35,1,.62.66.89,1.58.83,2.75-.03.38-.11.82-.24,1.33-.06.28-.05.47.05.57.09.1.33.13.71.1,2.62-.13,5.14-.92,7.54-2.37Zm-11.25,4.18c.35-.38.35-.7,0-.95-.7-.54-1.12-1.24-1.28-2.11-.16-.87-.05-1.68.33-2.44.03-.06.02-.13-.05-.19-.06-.06-.14-.1-.24-.12-.09-.02-.22.02-.38.12-.89.47-1.65,1.16-2.3,2.04-.65.89-1.08,1.84-1.28,2.87-.21,1.03-.08,1.84.38,2.44.46.6,1.21.7,2.25.28.92-.41,1.77-1.06,2.56-1.95Zm1.57-2.71c.35-1.11.3-2.02-.14-2.75-.25-.41-.52-.41-.81,0-.38.54-.6,1.07-.66,1.59s.13,1.04.57,1.54c.19.16.39.2.59.12.21-.08.36-.24.45-.5Z"/>
    <path class="cls-2" d="m407.01,98.28c.09.06.17.16.21.28.05.13.08.27.09.43.02.16.02.3.02.43s-.02.28-.07.47c-.05.19-.08.34-.09.45s-.06.26-.12.45c-.06.19-.09.3-.09.33-.38,1.36-1.19,3.61-2.42,6.74-1.71,4.24-4.38,10.4-8.02,18.48-3.64,8.08-6.26,14.08-7.88,18.01-.09.28-.28.45-.55.5s-.49-.02-.66-.19-.21-.39-.12-.64c1.52-3.73,4.22-9.91,8.11-18.53,3.89-8.62,6.75-15.32,8.59-20.1.32-.85.85-2.5,1.61-4.93.03-.1,0-.17-.12-.24-.11-.06-.21-.05-.31.05s-.21.19-.33.28c-1.11,1.11-2.21,2.3-3.32,3.58s-2.4,2.85-3.89,4.72c-1.49,1.87-2.51,3.15-3.08,3.84-.22.25-.74.86-1.54,1.83-.81.97-1.36,1.63-1.66,1.99-.3.36-.81.96-1.52,1.8-.71.84-1.28,1.49-1.71,1.95-.43.46-.97,1.02-1.61,1.68-.65.66-1.27,1.27-1.85,1.83-.59.55-1.18,1.08-1.78,1.59-3.39,2.88-5.81,3.16-7.26.85-.38-.6-.67-1.3-.85-2.09-.19-.79-.32-1.52-.38-2.18-.06-.66-.06-1.52.02-2.56.08-1.04.17-1.84.26-2.4.09-.55.24-1.38.43-2.49.19-1.11.3-1.8.33-2.09.1-.54.28-1.58.55-3.13.27-1.55.47-2.74.59-3.56,0-.13-.05-.21-.14-.24-.09-.03-.19.02-.29.14-1.71,3.01-3.37,6.15-4.98,9.44s-3.49,7.33-5.62,12.12c-2.13,4.79-3.6,8.04-4.39,9.75-.16.25-.35.38-.57.38s-.42-.12-.59-.36c-.17-.24-.2-.48-.07-.74,4.74-10.15,7.97-17.02,9.68-20.59,2.02-4.18,3.59-7.32,4.7-9.44.7-1.58,1.2-2.6,1.52-3.06.32-.46.63-.75.95-.88,1.55-.57,1.76,1.8.62,7.12-.06.22-.09.36-.09.43-.73,4.14-1.14,7.24-1.23,9.3,0,.09-.02.33-.05.71-.03.38-.05.65-.05.81s0,.44-.02.83c-.02.4-.02.7,0,.93.01.22.04.51.07.85.03.35.08.63.14.85.06.22.14.47.24.74.09.27.22.51.38.71.16.21.33.37.52.5.32.25.68.38,1.09.38s.85-.1,1.3-.31c.46-.21.93-.47,1.4-.78.47-.32.96-.7,1.47-1.16.5-.46.98-.91,1.42-1.35.44-.44.89-.93,1.35-1.45.46-.52.85-.98,1.19-1.38s.66-.79,1-1.19c.33-.4.56-.66.69-.78,1.61-1.83,3.84-4.48,6.69-7.95s4.75-5.75,5.69-6.86c.06-.06.21-.24.43-.52.22-.28.44-.56.66-.83.22-.27.5-.6.83-1,.33-.4.64-.74.93-1.04.29-.3.61-.61.97-.93.36-.32.69-.54.97-.66.29-.13.58-.21.88-.26s.55.06.74.31Z"/>
    <path class="cls-2" d="m425.23,124.33c.19-.19.41-.24.66-.14.25.09.41.25.47.47.06.22,0,.44-.19.66-2.31,2.34-4.6,4.16-6.88,5.46-1.99,1.17-3.76,1.76-5.31,1.76-1.46,0-2.55-.59-3.3-1.78-.74-1.19-.96-2.49-.64-3.91.03-.13.02-.21-.02-.26-.05-.05-.1-.02-.17.07-.13.19-.24.35-.33.47-1.93,2.44-3.73,4.08-5.41,4.93-.89.47-1.68.51-2.4.1s-.97-1.14-.78-2.18c.16-.89.62-1.88,1.38-2.99.76-1.11,1.67-2.08,2.73-2.92,1.06-.84,2.17-1.44,3.35-1.8,1.17-.36,2.25-.26,3.23.31.09.03.19-.02.28-.14.6-.89,1.08-1.5,1.42-1.85.22-.19.46-.24.71-.17.25.08.41.24.47.47.06.24,0,.47-.19.69-.89.89-1.68,2.1-2.4,3.63-.71,1.53-.91,2.82-.59,3.87.67,2.21,2.26,2.8,4.79,1.76,2.91-1.17,5.95-3.34,9.11-6.5Zm-15.18-.28c.1-.16.11-.3.05-.43-.06-.13-.17-.19-.33-.19-1.3,0-2.75.74-4.34,2.21-1.6,1.47-2.57,2.76-2.92,3.87-.16.25-.23.62-.21,1.12.02.49.26.64.74.45.73-.28,1.6-.95,2.61-1.99,1.52-1.45,2.99-3.13,4.41-5.03Z"/>
    <path class="cls-2" d="m444.11,124.95c.19-.22.41-.28.66-.19.25.09.41.25.47.47.06.22.02.44-.14.66-2.02,2.02-3.99,3.71-5.88,5.05-1.9,1.34-3.83,2.11-5.79,2.3-1.08.13-1.96,0-2.66-.38-.7-.38-1.16-.92-1.4-1.64s-.36-1.48-.36-2.3.11-1.68.33-2.56c.06-.19.03-.37-.09-.55-.13-.17-.3-.26-.52-.26-.13.03-.27.05-.43.05-1.68,0-3.37-.17-5.08-.52-.22-.03-.38-.13-.47-.28-.09-.16-.13-.35-.09-.57.09-.41.36-.58.81-.52,1.64.32,3.26.47,4.84.47,1.42,0,2.72-.13,3.89-.38.44-.09.71.08.81.52.06.19.04.37-.07.55-.11.17-.26.28-.45.31-.32.06-.65.13-1,.19-.25.03-.43.17-.52.43-.22.63-.4,1.25-.52,1.85-.13.6-.18,1.23-.17,1.9.02.66.22,1.21.62,1.64.39.43.99.67,1.78.74,1.04.09,2.56-.43,4.55-1.57,2.31-1.36,4.6-3.16,6.88-5.41Z"/>
    <path class="cls-2" d="m463.8,125.19c.22-.19.46-.24.71-.14.25.09.41.25.47.47.06.22,0,.44-.19.66-1.93,1.83-3.81,3.3-5.65,4.39-1.84,1.09-3.75,1.61-5.74,1.54-3.38-.16-5.98-1.55-7.78-4.18-.19-.28-.36-.35-.52-.19-.98.92-1.8,1.98-2.47,3.18-.03.1-.1.26-.21.5-.11.24-.2.42-.26.55-.13.22-.31.33-.55.33s-.43-.11-.59-.33c-.16-.22-.17-.46-.05-.71.03-.09.09-.22.17-.38.08-.16.13-.25.17-.28,0-.06.02-.13.05-.19,0-.03.02-.06.05-.09.03-.03.05-.06.05-.09,2.62-5.6,5.96-12.27,10.01-20.02-.25,0-.47-.11-.64-.33-.17-.22-.18-.46-.02-.71.76-1.49,1.99-3.05,3.7-4.7.28-.28.58-.31.9-.07.32.24.38.55.19.93-4.37,8.32-7.78,14.99-10.25,20.02-.03.09-.02.17.02.21.05.05.12.02.21-.07,1.01-.79,2.1-1.5,3.27-2.14.66-.35,1.18-.61,1.54-.78.36-.17.91-.4,1.64-.66.73-.27,1.38-.38,1.95-.33.57.05,1.06.23,1.47.55.57.44.84.92.81,1.42-.03.51-.24.97-.62,1.4s-.84.75-1.38.97c-1.68.7-4.07,1.01-7.17.95-.35,0-.41.14-.19.43.89,1.3,2.12,2.25,3.7,2.87,1.58.62,3.1.75,4.56.4,1.58-.35,3.05-.97,4.41-1.87,1.36-.9,2.77-2.06,4.22-3.49Zm-15.37-.05c-.09.06-.13.14-.12.21.02.08.07.12.17.12,1.2-.03,2.28-.14,3.23-.33,1.36-.25,2.25-.52,2.66-.81.98-.7.82-1.07-.47-1.14-.6-.03-1.04-.02-1.33.05-1.39.44-2.77,1.08-4.13,1.9Z"/>
    <path class="cls-2" d="m482.55,124.66c.22-.19.46-.24.71-.14.25.09.41.25.47.47.06.22,0,.44-.19.66-6.64,5.76-12.19,8.13-16.65,7.12-1.52-.35-2.59-1.08-3.2-2.21-.62-1.12-.75-2.36-.4-3.7.35-1.34,1.04-2.55,2.09-3.63.85-.89,1.82-1.57,2.89-2.06,1.08-.49,2.12-.59,3.13-.31.76.22,1.25.7,1.47,1.42.22.73.21,1.41-.05,2.04-.35,1.2-1.41,2.07-3.18,2.61-1.77.54-3.27.51-4.51-.09-.22-.1-.4.05-.52.43-.06.32-.09.63-.09.95-.03,1.04.28,1.85.93,2.42.65.57,1.46.89,2.44.95.98.06,1.95.02,2.89-.14.95-.16,1.8-.4,2.56-.71,2.75-1.11,5.82-3.13,9.21-6.07Zm-16.8.33c-.06.13-.09.26-.07.4.02.14.09.23.21.26.73.22,1.53.28,2.4.17.87-.11,1.65-.43,2.35-.95.7-.52,1.03-1.12,1-1.78-.1-1.23-1-1.44-2.71-.62-1.46.7-2.51,1.54-3.18,2.52Z"/>
    <path class="cls-2" d="m512.11,108.96c.29,0,.48.12.59.36.11.24.11.47,0,.71-.11.24-.31.36-.59.36-4.14,0-9.79.05-16.94.14-.35,0-.6.14-.76.43-2.63,4.46-5.95,9-9.96,13.62-.16.22-.3.46-.43.71-1.04,2.56-1.98,5.05-2.8,7.45-.82,2.34-1.39,4.24-1.71,5.69-.03.06-.1.28-.19.66-.09.38-.17.68-.21.9-.05.22-.07.48-.07.78s.05.53.14.69c.16.22.17.44.02.66-.14.22-.33.34-.57.36-.24.02-.45-.09-.64-.31-.22-.32-.32-.75-.31-1.3.02-.55.05-.97.09-1.23.05-.27.15-.72.31-1.35.47-1.93.98-3.64,1.52-5.12,2.59-7.43,5.52-14.47,8.78-21.12.03-.06.11-.22.24-.47.13-.25.22-.46.28-.62.03-.09.02-.18-.02-.26-.05-.08-.12-.12-.21-.12-7.15.09-12.79.14-16.94.14-.29,0-.48-.12-.59-.36-.11-.24-.11-.47,0-.69.11-.22.31-.33.59-.33,4.27,0,10.23-.05,17.89-.14.13,0,.21-.05.24-.14,3.8-7.66,6.56-11.48,8.3-11.48.47,0,.81.17,1,.52.19.35.3.71.33,1.09,0,.63-.3,1.72-.9,3.27-.79,2.02-1.77,4.11-2.94,6.26-.03.09-.02.18.02.26.05.08.12.12.21.12,6.77-.06,12.18-.11,16.23-.14Zm-19.6,1.95c.06-.06.06-.14,0-.24s-.14-.14-.24-.14c-.32,0-.81.02-1.47.05-.09,0-.16.05-.19.14-2.21,4.21-3.32,6.63-3.32,7.26,0,.16.08.24.24.24.47,0,2.14-2.44,4.98-7.31Zm1.14-1.99c1.55-2.72,2.77-5.04,3.65-6.95.88-1.91,1.11-2.87.66-2.87-.38,0-1.17.94-2.37,2.82-1.2,1.88-2.53,4.17-3.99,6.86-.03.09-.02.18.02.26.05.08.12.12.21.12h1.47c.16,0,.27-.08.33-.24Z"/>
    <path class="cls-2" d="m552.96,98.9c-3.54,9.24-9.1,19.14-16.66,29.7-.09.1-.09.21,0,.33.09.13.22.16.38.09,4.3-1.93,8.9-3.75,13.81-5.46.29-.1.51-.05.69.14.17.19.24.41.19.66-.05.25-.21.43-.5.52-6.07,2.12-11.69,4.43-16.84,6.93-.19.06-.35.19-.47.38-.89,1.14-1.78,2.27-2.68,3.39-.9,1.12-1.97,2.4-3.2,3.84-1.23,1.44-2.44,2.77-3.61,3.99-1.17,1.22-2.39,2.44-3.65,3.65s-2.46,2.21-3.58,2.99c-1.12.77-2.18,1.38-3.18,1.83-1,.44-1.88.58-2.66.4-.78-.17-1.37-.69-1.78-1.54-.22-.41-.33-.84-.33-1.28s.06-.88.19-1.3c.13-.43.35-.89.66-1.38.32-.49.65-.93,1-1.33.35-.4.78-.83,1.28-1.3s.96-.88,1.38-1.21.89-.71,1.45-1.14c.55-.43,1-.75,1.33-.97.33-.22.74-.5,1.21-.83s.77-.55.9-.64c4.43-3.1,9.35-5.98,14.76-8.64.16-.06.3-.17.43-.33,5.6-7.34,10.31-14.9,14.14-22.68.06-.09.04-.18-.07-.26-.11-.08-.21-.05-.31.07-3.89,5.5-7.77,10.25-11.62,14.24-2.37,2.44-4.62,4.48-6.74,6.12-2.12,1.65-4.37,2.82-6.74,3.51-.76.22-1.52.36-2.28.43-.76.06-1.53.03-2.3-.1-.78-.13-1.46-.43-2.04-.93-.58-.49-.99-1.15-1.21-1.97-.19-.63-.3-1.29-.33-1.97-.03-.68.03-1.41.19-2.18.16-.77.32-1.46.47-2.06.16-.6.42-1.33.78-2.18.36-.85.64-1.49.83-1.92.19-.43.47-1.05.85-1.87,2.37-5,4.63-8.57,6.79-10.72.25-.22.54-.28.85-.19l.14.05c.22.06.39.2.52.4.13.21.16.44.09.69-.06.19-.13.36-.19.52-.06.25-.22.41-.47.47-.25.06-.46.02-.62-.14-.1-.06-.17-.05-.24.05-.54.66-1.46,2.06-2.75,4.18-1.55,2.56-2.83,5.06-3.84,7.5-.25.6-.48,1.18-.69,1.73-.21.55-.42,1.23-.64,2.02-.22.79-.38,1.51-.47,2.16-.09.65-.12,1.31-.07,1.99.05.68.21,1.25.47,1.71.27.46.7.82,1.28,1.09.58.27,1.32.39,2.21.36,1.17-.06,2.39-.35,3.65-.85,1.26-.51,2.38-1.06,3.35-1.66.96-.6,2.06-1.44,3.3-2.51,1.23-1.08,2.17-1.94,2.82-2.59.65-.65,1.51-1.54,2.59-2.68,5.35-5.6,10.88-12.92,16.61-21.97.19-.35.46-.44.81-.28.38.1.54.32.47.66,0,.09-.03.19-.09.28Zm-22.35,35.07c.06-.06.06-.14,0-.24-.06-.1-.14-.11-.24-.05-4.24,2.21-8.13,4.59-11.67,7.12-2.28,1.61-4.33,3.38-6.17,5.31-2.53,2.66-2.93,4.22-1.19,4.7.47.13,1.08.04,1.83-.26.74-.3,1.26-.55,1.54-.74.28-.19.79-.55,1.52-1.09,1.99-1.42,4.33-3.54,7.02-6.36,2.53-2.66,4.98-5.46,7.35-8.4Z"/>
    <path class="cls-2" d="m566.01,124.71c.25-.16.49-.16.71,0,.22.16.33.36.33.59s-.11.44-.33.59c-1.99,1.2-4.27,2.01-6.83,2.42-1.11.19-1.9.28-2.37.28-.54.03-.92.21-1.14.52-.95,1.36-2.09,2.31-3.42,2.85-.79.28-1.55.41-2.28.38-.73-.03-1.35-.32-1.87-.88-.52-.55-.78-1.27-.78-2.16.03-1.01.34-2.13.92-3.35.58-1.22,1.42-2.29,2.49-3.23,1.08-.93,2.18-1.4,3.32-1.4.95,0,1.73.33,2.35,1,.62.66.89,1.58.83,2.75-.03.38-.11.82-.24,1.33-.06.28-.05.47.05.57.09.1.33.13.71.1,2.62-.13,5.14-.92,7.54-2.37Zm-11.25,4.18c.35-.38.35-.7,0-.95-.7-.54-1.12-1.24-1.28-2.11-.16-.87-.05-1.68.33-2.44.03-.06.02-.13-.05-.19-.06-.06-.14-.1-.24-.12-.09-.02-.22.02-.38.12-.89.47-1.65,1.16-2.3,2.04-.65.89-1.08,1.84-1.28,2.87-.21,1.03-.08,1.84.38,2.44.46.6,1.21.7,2.25.28.92-.41,1.77-1.06,2.56-1.95Zm1.57-2.71c.35-1.11.3-2.02-.14-2.75-.25-.41-.52-.41-.81,0-.38.54-.6,1.07-.66,1.59s.13,1.04.57,1.54c.19.16.39.2.59.12.21-.08.36-.24.45-.5Z"/>
    <path class="cls-2" d="m588.74,125c.22-.19.46-.24.71-.14.25.1.41.25.47.47.06.22,0,.43-.19.62-.92.79-1.59,1.37-2.02,1.73-.43.36-1.16.92-2.21,1.66-1.04.74-1.92,1.29-2.63,1.64-.71.35-1.55.64-2.52.88s-1.84.29-2.63.17c-2.82-.51-3.43-2.72-1.85-6.64-.98,1.08-1.87,1.99-2.66,2.75-.09.09-.33.32-.71.69-.38.36-.65.62-.81.76-.16.14-.42.38-.78.71-.36.33-.66.58-.9.74s-.52.35-.85.57c-.33.22-.65.4-.95.55-.3.14-.61.24-.93.31-1.87.41-2.74-.35-2.61-2.28.13-1.99,1.03-4.52,2.7-7.59.13-.22.22-.4.29-.52.19-.28.47-.39.83-.31.36.08.53.29.5.64-.09.66-.32,1.34-.66,2.04-.13.25-.32.36-.57.33-.82,1.52-1.36,2.93-1.61,4.22-.19.79-.21,1.34-.05,1.66.16.32.44.42.85.31.41-.11.81-.28,1.21-.5.4-.22.83-.51,1.3-.85.57-.44,1.12-.9,1.66-1.38.54-.47,1.13-1.04,1.78-1.71.65-.66,1.12-1.15,1.42-1.47.3-.32.85-.92,1.66-1.8.81-.89,1.29-1.42,1.45-1.59.16-.17.35-.24.57-.21.25-.06.47.02.67.26.19.24.22.5.09.78-.16.35-.44.89-.83,1.61-.4.73-.72,1.38-.97,1.97-.25.59-.41,1.15-.47,1.68-.16.89-.06,1.57.29,2.06.35.49.82.74,1.42.76.6.02,1.28-.07,2.04-.26,2.34-.73,5.17-2.5,8.49-5.31Z"/>
    <path class="cls-2" d="m608.57,124.95c.19-.22.41-.28.66-.19.25.09.41.25.47.47.06.22.02.44-.14.66-2.02,2.02-3.99,3.71-5.88,5.05-1.9,1.34-3.83,2.11-5.79,2.3-1.08.13-1.96,0-2.66-.38-.7-.38-1.16-.92-1.4-1.64s-.36-1.48-.36-2.3.11-1.68.33-2.56c.06-.19.03-.37-.09-.55-.13-.17-.3-.26-.52-.26-.13.03-.27.05-.43.05-1.68,0-3.37-.17-5.08-.52-.22-.03-.38-.13-.47-.28-.09-.16-.13-.35-.09-.57.09-.41.36-.58.81-.52,1.64.32,3.26.47,4.84.47,1.42,0,2.72-.13,3.89-.38.44-.09.71.08.81.52.06.19.04.37-.07.55-.11.17-.26.28-.45.31-.32.06-.65.13-1,.19-.25.03-.43.17-.52.43-.22.63-.4,1.25-.52,1.85-.13.6-.18,1.23-.17,1.9.02.66.22,1.21.62,1.64.39.43.99.67,1.78.74,1.04.09,2.56-.43,4.55-1.57,2.31-1.36,4.6-3.16,6.88-5.41Z"/>
    <path class="cls-2" d="m627.03,124.52c.25-.06.45-.02.59.14.14.16.2.36.17.59-.03.24-.17.4-.43.5-4.02,1.3-7.54,2.7-10.58,4.22-.32.16-.4.38-.24.66.25.54.33,1.17.24,1.9-.38,2.15-1.75,4.2-4.1,6.15-2.36,1.95-4.69,3.19-7,3.72-.66.13-1.3.1-1.92-.09-.62-.19-.99-.6-1.12-1.23-.28-1.3.92-3.16,3.61-5.6,2.06-1.87,4.46-3.57,7.21-5.12.09-.06.14-.17.14-.31s-.06-.24-.19-.31c-.38-.16-.62-.25-.71-.28-.06-.03-.33-.16-.81-.38-.47-.22-.8-.39-.97-.5-.17-.11-.43-.27-.76-.47-.33-.21-.59-.43-.78-.66-.19-.24-.35-.5-.47-.78-.28-.76-.25-1.49.12-2.21.36-.71.91-1.26,1.64-1.66.73-.4,1.5-.65,2.33-.76.82-.11,1.53.07,2.13.55.19.13.28.32.26.57-.02.25-.11.43-.29.52s-.37.08-.59-.05c-.7-.51-1.51-.58-2.44-.21-.93.36-1.5.91-1.71,1.64-.21.73.09,1.47.88,2.23.38.29.98.61,1.8.97.82.36,1.33.59,1.52.69.09.06.17.11.24.14.32.19.63.21.95.05,3.26-1.68,7.02-3.21,11.29-4.6Zm-11.44,7.07c-.03-.16-.08-.3-.14-.43-.16-.25-.38-.3-.66-.14-2.94,1.61-5.49,3.4-7.64,5.36-2.28,2.06-3.35,3.48-3.23,4.27.03.25.22.41.57.47.35.06.69.05,1.02-.02.33-.08.66-.18.97-.31,2.72-1.01,5.09-2.69,7.12-5.03,1.55-1.77,2.21-3.16,1.99-4.18Z"/>
    <path class="cls-2" d="m644.82,124.66c.22-.19.46-.24.71-.14.25.09.41.25.47.47.06.22,0,.44-.19.66-6.64,5.76-12.19,8.13-16.65,7.12-1.52-.35-2.59-1.08-3.2-2.21-.62-1.12-.75-2.36-.4-3.7.35-1.34,1.04-2.55,2.09-3.63.85-.89,1.82-1.57,2.89-2.06,1.08-.49,2.12-.59,3.13-.31.76.22,1.25.7,1.47,1.42.22.73.21,1.41-.05,2.04-.35,1.2-1.41,2.07-3.18,2.61-1.77.54-3.27.51-4.51-.09-.22-.1-.4.05-.52.43-.06.32-.09.63-.09.95-.03,1.04.28,1.85.93,2.42.65.57,1.46.89,2.44.95.98.06,1.95.02,2.89-.14.95-.16,1.8-.4,2.56-.71,2.75-1.11,5.82-3.13,9.21-6.07Zm-16.8.33c-.06.13-.09.26-.07.4.02.14.09.23.21.26.73.22,1.53.28,2.4.17.87-.11,1.65-.43,2.35-.95.7-.52,1.03-1.12,1-1.78-.1-1.23-1-1.44-2.71-.62-1.46.7-2.51,1.54-3.18,2.52Z"/>
    <path class="cls-2" d="m660.06,98.28c.47,0,.81.17,1.02.52.21.35.31.71.31,1.09,0,.63-.3,1.72-.9,3.27-2.75,7.05-7.47,14.44-14.14,22.16-.16.19-.29.4-.38.62-1.08,2.59-2.02,5.09-2.85,7.5-.79,2.34-1.36,4.25-1.71,5.74-.03.03-.09.24-.19.62-.09.38-.17.68-.21.9-.05.22-.07.48-.07.78s.06.53.19.69c.16.25.16.48,0,.69-.16.21-.36.32-.59.33-.24.02-.45-.09-.64-.31-.1-.16-.17-.36-.24-.62-.06-.25-.09-.47-.09-.66s.02-.45.07-.78c.05-.33.08-.56.1-.69.02-.13.07-.37.17-.74.09-.36.14-.56.14-.59.47-1.96,1.31-4.6,2.52-7.92,2.34-6.33,4.92-12.37,7.73-18.13.06-.13.17-.35.33-.66.54-1.11.98-2,1.33-2.68.35-.68.85-1.65,1.5-2.92.65-1.26,1.23-2.3,1.76-3.11.52-.81,1.08-1.64,1.68-2.49.6-.85,1.18-1.5,1.73-1.95.55-.44,1.04-.66,1.45-.66Zm-10.58,20.64c.32,0,1.46-1.6,3.44-4.79,1.98-3.19,3.77-6.38,5.39-9.56s2.15-4.77,1.61-4.77c-.51,0-1.64,1.47-3.39,4.41s-3.42,5.96-4.98,9.06c-1.57,3.1-2.35,4.9-2.35,5.41,0,.16.09.24.29.24Z"/>
    <path class="cls-2" d="m670.68,118.4c.35-.19.65-.12.9.21.25.33.24.62-.05.88-.51.51-1.95,1.95-4.32,4.34-2.37,2.39-4.22,4.18-5.55,5.39-1.14,1.04-1.82,1.65-2.04,1.83-.22.17-.58.44-1.07.78s-.94.58-1.35.71c-.41.13-.81.17-1.19.14-1.01-.1-1.67-.66-1.97-1.68-.3-1.03-.28-2.24.05-3.63.33-1.39.7-2.65,1.12-3.77.41-1.12.79-2,1.14-2.63.16-.25.36-.38.59-.38s.43.12.57.36.15.47.02.69c-1.36,2.53-2.06,4.98-2.09,7.35-.03,1.11.19,1.77.66,1.99.47.19,1.22-.09,2.23-.85,1.87-1.36,4.02-3.27,6.45-5.74-.06-.16-.05-.32.05-.47.47-1.08,1.21-2.04,2.21-2.89,1-.85,2.21-1.72,3.63-2.61Z"/>
    <path class="cls-2" d="m690.8,124.66c.22-.19.46-.24.71-.14.25.09.41.25.47.47.06.22,0,.44-.19.66-6.64,5.76-12.19,8.13-16.65,7.12-1.52-.35-2.59-1.08-3.2-2.21-.62-1.12-.75-2.36-.4-3.7.35-1.34,1.04-2.55,2.09-3.63.85-.89,1.82-1.57,2.89-2.06,1.08-.49,2.12-.59,3.13-.31.76.22,1.25.7,1.47,1.42.22.73.21,1.41-.05,2.04-.35,1.2-1.41,2.07-3.18,2.61-1.77.54-3.27.51-4.51-.09-.22-.1-.4.05-.52.43-.06.32-.09.63-.09.95-.03,1.04.28,1.85.93,2.42.65.57,1.46.89,2.44.95.98.06,1.95.02,2.89-.14.95-.16,1.8-.4,2.56-.71,2.75-1.11,5.82-3.13,9.21-6.07Zm-16.8.33c-.06.13-.09.26-.07.4.02.14.09.23.21.26.73.22,1.53.28,2.4.17.87-.11,1.65-.43,2.35-.95.7-.52,1.03-1.12,1-1.78-.1-1.23-1-1.44-2.71-.62-1.46.7-2.51,1.54-3.18,2.52Z"/>
    <path class="cls-2" d="m709.07,124.52c.25-.06.45-.02.59.14.14.16.2.36.17.59-.03.24-.17.4-.43.5-4.02,1.3-7.54,2.7-10.58,4.22-.32.16-.4.38-.24.66.25.54.33,1.17.24,1.9-.38,2.15-1.75,4.2-4.1,6.15-2.36,1.95-4.69,3.19-7,3.72-.66.13-1.3.1-1.92-.09-.62-.19-.99-.6-1.12-1.23-.28-1.3.92-3.16,3.61-5.6,2.06-1.87,4.46-3.57,7.21-5.12.09-.06.14-.17.14-.31s-.06-.24-.19-.31c-.38-.16-.62-.25-.71-.28-.06-.03-.33-.16-.81-.38-.47-.22-.8-.39-.97-.5-.17-.11-.43-.27-.76-.47-.33-.21-.59-.43-.78-.66-.19-.24-.35-.5-.47-.78-.28-.76-.25-1.49.12-2.21.36-.71.91-1.26,1.64-1.66.73-.4,1.5-.65,2.33-.76.82-.11,1.53.07,2.13.55.19.13.28.32.26.57-.02.25-.11.43-.29.52s-.37.08-.59-.05c-.7-.51-1.51-.58-2.44-.21-.93.36-1.5.91-1.71,1.64-.21.73.09,1.47.88,2.23.38.29.98.61,1.8.97.82.36,1.33.59,1.52.69.09.06.17.11.24.14.32.19.63.21.95.05,3.26-1.68,7.02-3.21,11.29-4.6Zm-11.44,7.07c-.03-.16-.08-.3-.14-.43-.16-.25-.38-.3-.66-.14-2.94,1.61-5.49,3.4-7.64,5.36-2.28,2.06-3.35,3.48-3.23,4.27.03.25.22.41.57.47.35.06.69.05,1.02-.02.33-.08.66-.18.97-.31,2.72-1.01,5.09-2.69,7.12-5.03,1.55-1.77,2.21-3.16,1.99-4.18Z"/>
  </g>
</svg>