<?xml version="1.0" encoding="UTF-8"?>
<svg id="Calque_1"
    xmlns="http://www.w3.org/2000/svg" width="680.67" height="362.71"
    xmlns:xlink="http://www.w3.org/1999/xlink" viewBox="0 0 680.67 362.71">
    <defs>
        <linearGradient id="linear-gradient" x1="440.78" y1="176.57" x2="487.19" y2="176.57" gradientTransform="translate(0 322.4) scale(1 -1)" gradientUnits="userSpaceOnUse">
            <stop offset="0" stop-color="#4a017d"/>
            <stop offset="1" stop-color="#e0013f"/>
        </linearGradient>
        <linearGradient id="linear-gradient-2" x1="172.42" y1="191.49" x2="241.14" y2="191.49" gradientTransform="translate(0 322.4) scale(1 -1)" gradientUnits="userSpaceOnUse">
            <stop offset="0" stop-color="#4a017d"/>
            <stop offset="1" stop-color="#e0013f"/>
        </linearGradient>
    </defs>
    <path d="m256.91,125.16c0-5.84,4.94-11,11.22-11s11,5.16,11,11-4.94,11.22-11,11.22-11.22-5.16-11.22-11.22Zm.22,17.39h21.66v58.01h-21.66v-58.01Z" fill="#1c1517"/>
    <path d="m353.07,142.55v51.84c0,14.92-13.69,25.47-32.99,25.47-10.77,0-20.87-3.25-27.04-7.74l7.07-14.92c3.37,2.81,10.1,4.71,16.49,4.71,8.64,0,14.7-3.7,14.7-8.64v-4.6c-4.6,4.82-11.22,7.63-17.95,7.63-14.03,0-25.13-11.44-25.13-27.6s11.11-27.49,25.13-27.49c6.96,0,14.36,3.25,17.95,7.74v-6.4h21.77Zm-21.77,26.15c0-5.61-4.37-9.54-10.43-9.54s-10.44,3.93-10.44,9.54,4.38,9.65,10.44,9.65,10.43-4.04,10.43-9.65Z" fill="#1c1517"/>
    <path d="m364.74,125.16c0-5.84,4.94-11,11.22-11s11,5.16,11,11-4.94,11.22-11,11.22-11.22-5.16-11.22-11.22Zm.22,17.39h21.66v58.01h-21.66v-58.01Z" fill="#1c1517"/>
    <path d="m396.75,188.67c0-6.73,5.72-12.68,13.24-12.68,6.96,0,12.68,5.95,12.68,12.68,0,7.29-5.72,13.24-12.68,13.24-7.52,0-13.24-5.95-13.24-13.24Z" fill="#1c1517"/>
    <path d="m539.29,139.86v17.95c-11.44,0-18.18,6.28-18.18,16.83v24.57h-21.66v-58.01h21.66v10.32c3.82-7.17,10.32-11.66,18.18-11.66Z" fill="#1c1517"/>
    <path d="m486.91,155.91c-2.48.28-6.06-.52-11.28-3.4-11.43-6.3-26.16-7.89-35.13-8.22-1.81.74-3.59,1.54-5.33,2.42l6.62,13.13c4.83-2.47,8.53-3.93,14.03-3.93,6.73,0,11.9,3.37,11.9,9.09v.34c-4.15-1.68-8.42-2.58-12.23-2.58-14.03,0-25.02,7.97-25.02,19.3s9.87,18.51,22.33,18.51c5.5,0,11-1.91,14.92-5.5v4.15h20.76v-34.22c-.02-3.34-.58-6.36-1.57-9.09Zm-19.21,26.14c-.45,3.37-4.49,5.72-9.65,5.72-4.15,0-7.07-2.58-7.07-6.28,0-3.93,3.14-6.73,7.52-6.73,3.36,0,7.18.79,9.2,1.8v5.49Z" fill="#1c1517"/>
    <path d="m461.93,137.78c-7.65,0-14.6,1.74-21.15,4.43,8.97.33,23.71,1.91,35.13,8.22,5.22,2.88,8.8,3.68,11.28,3.4-3.69-10.23-13.66-16.05-25.26-16.05Z" fill="url(#linear-gradient)"/>
    <path d="m241.14,141.96c-6.81,2.25-18.06,3.25-33.69-4.18-14.85-7.06-26.99-6.51-35.04-4.5v67.29h28.72c26.93,0,46.01-16.05,46.01-38.6,0-7.53-2.16-14.3-6-20.01Zm-36.41,38.86h-10.55v-37.59h10.55c11.67,0,19.97,7.74,19.97,18.74,0,10.99-8.3,18.85-19.97,18.85Z" fill="#1c1517"/>
    <path d="m201.14,120.99h-28.72v9.8c8.05-2,19.51-3.44,34.36,3.62,15.63,7.43,27.55,7.32,34.36,5.06-7.65-11.39-22.06-18.48-40-18.48Z" fill="url(#linear-gradient-2)"/>
</svg>