<svg id="Calque_1" data-name="Calque 1" xmlns="http://www.w3.org/2000/svg" xmlns:xlink="http://www.w3.org/1999/xlink" viewBox="0 0 366.88 105.71"><defs><style>.cls-1{fill:#fff;}.cls-2{fill:url(#linear-gradient);}.cls-3{fill:url(#linear-gradient-2);}</style><linearGradient id="linear-gradient" x1="492.21" y1="365.52" x2="538.62" y2="365.52" gradientTransform="matrix(1, 0, 0, -1, 0, 598)" gradientUnits="userSpaceOnUse"><stop offset="0" stop-color="#4a017d"/><stop offset="1" stop-color="#e0013f"/></linearGradient><linearGradient id="linear-gradient-2" x1="223.85" y1="380.45" x2="292.57" y2="380.45" xlink:href="#linear-gradient"/></defs><path class="cls-1" d="M308.34,211.8A11.11,11.11,0,1,1,319.56,223,11.21,11.21,0,0,1,308.34,211.8Zm.22,17.4h21.66v58H308.56Z" transform="translate(-223.83 -200.8)"/><path class="cls-1" d="M404.5,229.2V281c0,14.92-13.69,25.47-33,25.47-10.77,0-20.87-3.25-27-7.74l7.07-14.92c3.37,2.81,10.1,4.71,16.49,4.71,8.64,0,14.7-3.7,14.7-8.64v-4.6a25.05,25.05,0,0,1-18,7.63c-14,0-25.13-11.44-25.13-27.6s11.11-27.49,25.13-27.49c7,0,14.36,3.25,18,7.74v-6.4Zm-21.77,26.14c0-5.61-4.37-9.54-10.44-9.54s-10.44,3.93-10.44,9.54,4.39,9.65,10.44,9.65S382.73,261,382.73,255.34Z" transform="translate(-223.83 -200.8)"/><path class="cls-1" d="M416.16,211.8A11.11,11.11,0,1,1,427.38,223,11.21,11.21,0,0,1,416.16,211.8Zm.22,17.4H438v58H416.38Z" transform="translate(-223.83 -200.8)"/><path class="cls-1" d="M448.18,275.31a13,13,0,0,1,25.91,0c0,7.29-5.72,13.24-12.68,13.24A13.11,13.11,0,0,1,448.18,275.31Z" transform="translate(-223.83 -200.8)"/><path class="cls-1" d="M590.72,226.5v17.95c-11.44,0-18.18,6.28-18.18,16.83v24.57H550.88v-58h21.66v10.32C576.35,231,582.85,226.5,590.72,226.5Z" transform="translate(-223.83 -200.8)"/><path class="cls-1" d="M538.34,242.55c-2.49.28-6.06-.52-11.28-3.4-11.43-6.3-26.16-7.89-35.13-8.22-1.81.74-3.59,1.54-5.33,2.42l6.62,13.13c4.82-2.47,8.53-3.93,14-3.93,6.73,0,11.9,3.37,11.9,9.09V252a33.38,33.38,0,0,0-12.24-2.58c-14,0-25,8-25,19.3,0,10.88,9.86,18.51,22.32,18.51a22.31,22.31,0,0,0,14.93-5.5v4.15h20.76V251.64A27.44,27.44,0,0,0,538.34,242.55Zm-19.21,26.14c-.45,3.37-4.49,5.72-9.65,5.72-4.15,0-7.07-2.58-7.07-6.28,0-3.93,3.14-6.73,7.52-6.73a23.59,23.59,0,0,1,9.2,1.8Z" transform="translate(-223.83 -200.8)"/><path class="cls-1" d="M538.34,242.55h0Z" transform="translate(-223.83 -200.8)"/><path class="cls-1" d="M491.93,230.93Z" transform="translate(-223.83 -200.8)"/><path class="cls-2" d="M513.35,224.43a54.92,54.92,0,0,0-21.14,4.43c9,.33,23.7,1.91,35.13,8.22,5.22,2.88,8.79,3.68,11.28,3.4C534.93,230.25,525,224.43,513.35,224.43Z" transform="translate(-223.83 -200.8)"/><path class="cls-1" d="M292.57,228.6c-6.81,2.25-18.06,3.25-33.69-4.18-14.85-7.06-27-6.51-35-4.5v67.29h28.73c26.93,0,46-16,46-38.6A35.47,35.47,0,0,0,292.57,228.6Zm-36.42,38.86H245.61V229.87h10.55c11.67,0,20,7.74,20,18.74S267.83,267.46,256.15,267.46Z" transform="translate(-223.83 -200.8)"/><path class="cls-1" d="M292.57,228.6Z" transform="translate(-223.83 -200.8)"/><path class="cls-3" d="M252.57,207.63H223.85v9.8c8.05-2,19.51-3.44,34.36,3.62,15.62,7.43,27.55,7.32,34.36,5.06C284.92,214.72,270.51,207.63,252.57,207.63Z" transform="translate(-223.83 -200.8)"/></svg>