<svg id="Calque_1" data-name="Calque 1" xmlns="http://www.w3.org/2000/svg" xmlns:xlink="http://www.w3.org/1999/xlink" viewBox="0 0 500.77 144.27"><defs><style>.cls-1{fill:#1c1517;}.cls-2{fill:url(#linear-gradient);}.cls-3{fill:url(#linear-gradient-2);}</style><linearGradient id="linear-gradient" x1="553.03" y1="341.74" x2="616.38" y2="341.74" gradientTransform="matrix(1, 0, 0, -1, 0, 598)" gradientUnits="userSpaceOnUse"><stop offset="0" stop-color="#4a017d"/><stop offset="1" stop-color="#e0013f"/></linearGradient><linearGradient id="linear-gradient-2" x1="186.73" y1="362.11" x2="280.53" y2="362.11" xlink:href="#linear-gradient"/></defs><path class="cls-1" d="M302.06,228.05a15.17,15.17,0,1,1,15.31,15.31A15.3,15.3,0,0,1,302.06,228.05Zm.3,23.73h29.56V331H302.36Z" transform="translate(-186.72 -213.03)"/><path class="cls-1" d="M433.31,251.78v70.76c0,20.37-18.68,34.77-45,34.77-14.7,0-28.48-4.44-36.91-10.57L361,326.38c4.6,3.83,13.79,6.43,22.51,6.43,11.79,0,20.07-5.05,20.07-11.8v-6.28a34.21,34.21,0,0,1-24.5,10.42c-19.15,0-34.31-15.62-34.31-37.67S360,250,379.1,250c9.5,0,19.6,4.44,24.5,10.57v-8.74Zm-29.71,35.7c0-7.66-6-13-14.24-13s-14.25,5.36-14.25,13,6,13.17,14.25,13.17S403.6,295.13,403.6,287.48Z" transform="translate(-186.72 -213.03)"/><path class="cls-1" d="M449.24,228.05a15.17,15.17,0,1,1,15.31,15.31A15.3,15.3,0,0,1,449.24,228.05Zm.3,23.73H479.1V331H449.54Z" transform="translate(-186.72 -213.03)"/><path class="cls-1" d="M492.93,314.73c0-9.18,7.81-17.3,18.07-17.3a17.59,17.59,0,0,1,17.31,17.3c0,10-7.81,18.08-17.31,18.08A17.91,17.91,0,0,1,492.93,314.73Z" transform="translate(-186.72 -213.03)"/><path class="cls-1" d="M687.49,248.11v24.5c-15.61,0-24.81,8.57-24.81,23v33.54H633.11V249.94h29.57V264C667.89,254.24,676.76,248.11,687.49,248.11Z" transform="translate(-186.72 -213.03)"/><path class="cls-1" d="M616,270c-3.38.38-8.27-.71-15.39-4.64-15.6-8.6-35.71-10.77-48-11.22-2.47,1-4.9,2.1-7.28,3.3l9,17.92C561,272,566.05,270,573.56,270c9.19,0,16.24,4.6,16.24,12.41v.46a45.53,45.53,0,0,0-16.69-3.52C554,279.37,539,290.25,539,305.71c0,14.85,13.47,25.27,30.48,25.27a30.39,30.39,0,0,0,20.36-7.51v5.66h28.34v-46.7A36.64,36.64,0,0,0,616,270ZM589.77,305.7c-.61,4.6-6.12,7.81-13.17,7.81-5.66,0-9.65-3.53-9.65-8.58,0-5.36,4.29-9.18,10.27-9.18,4.58,0,9.8,1.08,12.55,2.46Z" transform="translate(-186.72 -213.03)"/><path d="M616,270h0Z" transform="translate(-186.72 -213.03)"/><path d="M552.65,254.16Z" transform="translate(-186.72 -213.03)"/><path class="cls-2" d="M581.9,245.27a75.08,75.08,0,0,0-28.87,6c12.24.45,32.36,2.61,48,11.22,7.13,3.93,12,5,15.4,4.64C611.34,253.22,597.73,245.27,581.9,245.27Z" transform="translate(-186.72 -213.03)"/><path class="cls-1" d="M280.53,251c-9.29,3.07-24.65,4.43-46-5.71-20.27-9.63-36.84-8.88-47.83-6.14V331h39.2c36.76,0,62.8-21.91,62.8-52.69A48.15,48.15,0,0,0,280.53,251Zm-49.69,53h-14.4V252.71h14.4c15.92,0,27.25,10.57,27.25,25.58S246.76,304,230.84,304Z" transform="translate(-186.72 -213.03)"/><path d="M280.53,251Z" transform="translate(-186.72 -213.03)"/><path class="cls-3" d="M225.94,222.36H186.73v13.37c11-2.73,26.63-4.69,46.9,4.94,21.34,10.14,37.61,10,46.9,6.91C270.09,232,250.42,222.36,225.94,222.36Z" transform="translate(-186.72 -213.03)"/></svg>